# xmcd
#
# Track frame offsets:
#	188
#	22238
#	39638
#	58688
#	76988
#	101738
#	112188
#	122288
#	138938
#	168863
#	181388
#
# Disc length: 2731 seconds
#
# Revision: 0
# Processed by: cddbd v1.5.2PL0 Copyright (c) Steve Scherf et al.
# Submitted via: dBpowerAMP V4.0
#
DISCID=910aa90b
DTITLE=michele McCain - Rockin´ The Blues
DYEAR=1900
DGENRE=Blues
TTITLE0=Blues Is Alright
TTITLE1=You Move You Lose
TTITLE2=Let The Good Times Roll
TTITLE3=Shake It Mama
TTITLE4=Black And Blue
TTITLE5=Rockin´ The Blues
TTITLE6=Come Up To My Place
TTITLE7=Lernin
TTITLE8=A Song For You - Georga
TTITLE9=I Love Him So
TTITLE10=Let Love Go
EXTD=
EXTT0=
EXTT1=
EXTT2=
EXTT3=
EXTT4=
EXTT5=
EXTT6=
EXTT7=
EXTT8=
EXTT9=
EXTT10=
PLAYORDER=
